<svg width="100%" viewBox="0 0 680 680" role="img" xmlns="http://www.w3.org/2000/svg">
  <title>Lo-fi radio vinyl record icon with Mount Fuji watermark</title>
  <desc>A cozy autumn vinyl record icon with a very wide flat Mount Fuji silhouette</desc>
  <defs>
    <radialGradient id="vinylGrad" cx="50%" cy="50%" r="50%">
      <stop offset="0%" stop-color="#2a1a0e"/>
      <stop offset="100%" stop-color="#1a0f07"/>
    </radialGradient>
    <radialGradient id="labelGrad" cx="50%" cy="50%" r="50%">
      <stop offset="0%" stop-color="#e8622a"/>
      <stop offset="100%" stop-color="#c44a15"/>
    </radialGradient>
    <radialGradient id="glowGrad" cx="50%" cy="50%" r="50%">
      <stop offset="0%" stop-color="#f0883a" stop-opacity="0.18"/>
      <stop offset="100%" stop-color="#e8622a" stop-opacity="0"/>
    </radialGradient>
    <clipPath id="vinylClip">
      <circle cx="340" cy="340" r="255"/>
    </clipPath>
  </defs>

  <circle cx="340" cy="340" r="290" fill="url(#glowGrad)"/>
  <circle cx="340" cy="340" r="255" fill="url(#vinylGrad)"/>

  <g clip-path="url(#vinylClip)">
    <path d="
      M340,100
      C338,106 332,122 322,144
      C308,174 290,208 270,246
      C248,288 222,332 196,374
      C168,418 136,458 104,492
      L576,492
      C544,458 512,418 484,374
      C458,332 432,288 410,246
      C390,208 372,174 358,144
      C348,122 342,106 340,100
      Z
    " fill="#c8843a" opacity="0.28"/>

    <path d="
      M340,100
      C339,106 335,120 328,138
      C320,158 310,180 300,202
      C294,216 289,227 285,236
      C295,228 308,222 322,219
      C332,217 338,218 340,220
      C342,218 348,217 358,219
      C372,222 385,228 395,236
      C391,227 386,216 380,202
      C370,180 360,158 352,138
      C345,120 341,106 340,100
      Z
    " fill="#f5efe8" opacity="0.78"/>

    <path d="M323,226 C320,244 317,264 315,282" fill="none" stroke="#f5efe8" stroke-width="3.5" opacity="0.28" stroke-linecap="round"/>
    <path d="M357,226 C360,244 363,264 365,282" fill="none" stroke="#f5efe8" stroke-width="3.5" opacity="0.28" stroke-linecap="round"/>
    <path d="M340,220 C340,239 340,260 340,279" fill="none" stroke="#f5efe8" stroke-width="2.5" opacity="0.18" stroke-linecap="round"/>
    <path d="M332,223 C330,240 328,257 327,272" fill="none" stroke="#f5efe8" stroke-width="2" opacity="0.13" stroke-linecap="round"/>
    <path d="M348,223 C350,240 352,257 353,272" fill="none" stroke="#f5efe8" stroke-width="2" opacity="0.13" stroke-linecap="round"/>
  </g>

  <circle cx="340" cy="340" r="240" fill="none" stroke="#3a2010" stroke-width="1.2" opacity="0.9"/>
  <circle cx="340" cy="340" r="225" fill="none" stroke="#3a2010" stroke-width="0.8" opacity="0.8"/>
  <circle cx="340" cy="340" r="210" fill="none" stroke="#3a2010" stroke-width="1.2" opacity="0.9"/>
  <circle cx="340" cy="340" r="196" fill="none" stroke="#3a2010" stroke-width="0.8" opacity="0.7"/>
  <circle cx="340" cy="340" r="183" fill="none" stroke="#3a2010" stroke-width="1" opacity="0.85"/>
  <circle cx="340" cy="340" r="170" fill="none" stroke="#3a2010" stroke-width="0.7" opacity="0.7"/>
  <circle cx="340" cy="340" r="158" fill="none" stroke="#3a2010" stroke-width="1" opacity="0.8"/>
  <circle cx="340" cy="340" r="146" fill="none" stroke="#3a2010" stroke-width="0.6" opacity="0.6"/>
  <circle cx="340" cy="340" r="135" fill="none" stroke="#3a2010" stroke-width="0.8" opacity="0.75"/>

  <line x1="200" y1="150" x2="480" y2="530" stroke="#5a3520" stroke-width="1.5" opacity="0.12"/>
  <line x1="160" y1="260" x2="520" y2="420" stroke="#5a3520" stroke-width="1" opacity="0.08"/>

  <circle cx="340" cy="340" r="110" fill="url(#labelGrad)"/>
  <circle cx="340" cy="340" r="108" fill="none" stroke="#f0a060" stroke-width="1.5" opacity="0.5"/>
  <circle cx="340" cy="340" r="95" fill="none" stroke="#d45a20" stroke-width="0.8" opacity="0.4"/>
  <circle cx="340" cy="340" r="88" fill="none" stroke="#d45a20" stroke-width="0.5" opacity="0.3"/>
  <circle cx="340" cy="340" r="78" fill="none" stroke="#d45a20" stroke-width="0.5" opacity="0.25"/>

  <circle cx="340" cy="340" r="8" fill="#1a0f07"/>
  <circle cx="340" cy="340" r="5" fill="#0d0804"/>
  <circle cx="340" cy="340" r="257" fill="none" stroke="#e8622a" stroke-width="2" opacity="0.2"/>
</svg>
